<?xml version="1.0" standalone="no"?>
<!DOCTYPE svg PUBLIC "-//W3C//DTD SVG 20010904//EN"
 "http://www.w3.org/TR/2001/REC-SVG-20010904/DTD/svg10.dtd">
<svg version="1.0" xmlns="http://www.w3.org/2000/svg"
 width="512.000000pt" height="512.000000pt" viewBox="0 0 512.000000 512.000000"
 preserveAspectRatio="xMidYMid meet">

<g transform="translate(0.000000,512.000000) scale(0.100000,-0.100000)"
fill="#000000" stroke="none">
<path d="M1756 4669 c-490 -65 -941 -422 -1211 -960 -354 -704 -350 -1615 11
-2320 218 -427 569 -751 952 -879 201 -67 175 -65 1052 -65 730 0 802 1 880
18 528 113 959 509 1209 1110 127 307 185 614 185 987 0 243 -15 385 -59 584
-163 720 -608 1281 -1163 1466 -200 66 -160 63 -1012 66 -426 1 -806 -2 -844
-7z m1468 -165 c35 -34 4 -64 -67 -64 -29 0 -90 -7 -137 -15 -243 -43 -454
-159 -655 -360 -206 -207 -345 -440 -450 -760 -68 -206 -115 -481 -115 -675 0
-58 -4 -83 -16 -94 -20 -20 -29 -20 -49 1 -15 15 -17 32 -11 137 30 534 202
998 500 1353 207 247 506 428 778 472 148 24 202 26 222 5z m-182 -822 c303
-232 485 -794 427 -1320 -30 -279 -108 -515 -235 -710 -61 -93 -177 -215 -237
-247 -37 -19 -37 -19 -74 0 -56 30 -185 162 -236 240 -174 272 -258 609 -244
985 17 463 183 862 438 1055 34 25 69 45 79 45 11 0 47 -22 82 -48z"/>
</g>
</svg>
